<svg id="Layer_1" data-name="Layer 1" xmlns="http://www.w3.org/2000/svg" viewBox="0 0 127.13 24.87"><defs><style>.cls-1{fill:#fff;}</style></defs><title>Rocketlogo_81494ddc-1d8b-4aec-95f4-46322756c3e0</title><path class="cls-1" d="M125.62,0.16a1.43,1.43,0,0,0-1,.43,1.53,1.53,0,0,0-.45,1.08,1.49,1.49,0,0,0,.44,1.05,1.48,1.48,0,0,0,1.06.45,1.53,1.53,0,0,0,1.07-.45,1.44,1.44,0,0,0,.44-1.06A1.5,1.5,0,0,0,126.69.6a1.48,1.48,0,0,0-1.07-.45m1.31,1.51a1.24,1.24,0,0,1-.38.9,1.31,1.31,0,0,1-.93.38,1.29,1.29,0,0,1-.91-0.39,1.3,1.3,0,0,1-.38-0.91,1.33,1.33,0,0,1,.4-0.93,1.25,1.25,0,0,1,.91-0.37,1.29,1.29,0,0,1,1.3,1.32m-1.26-.89H125v1.7h0.32V1.75h0.32L126,2.48h0.36L126,1.7a0.44,0.44,0,0,0,.39-0.46c0-.31-0.23-0.47-0.71-0.47M125.6,1c0.3,0,.44.08,0.44,0.29s-0.14.27-.43,0.27h-0.27V1h0.26Z" transform="translate(0 0)"/><path class="cls-1" d="M4.57,3.2h7.14c1.44,0,2.1.2,2.1,1.29V4.9c0,0.88-.45,1.29-1.69,1.29H4.57v-3ZM0,12.45H4.57V9.25h7.18c1.42,0,1.87.43,1.87,1.72v1.48h4.57V10.36c0-2-1.13-2.52-2.49-2.72v0c2.1-.41,2.55-1.38,2.55-3V3.79c0-2.21-.95-3.66-4.46-3.66H0V12.45ZM21,8.13c0,3.61,2.45,4.46,6.56,4.46h7.32c4.12,0,6.57-.85,6.57-4.46V4.46C41.46,0.85,39,0,34.89,0H27.57C23.46,0,21,.85,21,4.46V8.13Zm4.69-2.5c0-1.53.45-2.47,2.86-2.47h5.35c2.41,0,2.86.94,2.86,2.47V7c0,1.79-.45,2.47-2.61,2.47H28.31c-2.16,0-2.61-.68-2.61-2.47V5.63Zm18.19,2.5c0,3.61,2.45,4.46,6.56,4.46h7.36c4.59,0,5.49-1.63,5.49-3.71V7.72H58.74c0,1.53-.62,1.7-2.67,1.7H51.19C49,9.42,48.58,8.74,48.58,7V5.63c0-1.53.45-2.47,2.86-2.47h5c1.36,0,2.14.26,2.14,1.14V4.64h4.57c0-3.49-.8-4.65-7.3-4.65H50.45c-4.12,0-6.56.85-6.56,4.46V8.13Zm22.18,4.32h4.57V7.72h2l6.58,4.73h6.46l-9-6.29,8.07-6H78.54L72.77,4.66H70.63V0.14H66.07V12.45Zm21.34,0H104v-3H92v-2h11.11V5H92V3H103.7V0.14H87.4V12.45ZM105.63,3.2h6.42v9.25h4.57V3.2H123V0.14H105.63V3.2Z" transform="translate(0 0)"/><path class="cls-1" d="M0,24.86H4.63V24H1v-1.1H3.11V22.17H1v-1H4.59V20.43H0v4.44ZM12.36,21.2v0.51l0.92-.21V21.4c0-.77-0.31-1-1.11-1H9.62c-0.84,0-1.11.22-1.11,1V22c0,0.83.27,1,1.11,1h2.8v1H9.25V23.51l-0.92.19v0.12c0,0.83.28,1,1.12,1h2.77c0.84,0,1.12-.21,1.12-1V23.21c0-.83-0.28-1-1.12-1H9.42v-1h2.94Zm5.06,3.66h1V23.14h2.82a0.81,0.81,0,0,0,1-.86v-1a0.81,0.81,0,0,0-1-.86H17.42v4.44Zm3.37-3.67c0.32,0,.47.06,0.47,0.35V22c0,0.29-.15.35-0.47,0.35H18.44V21.19h2.35Zm5,3.67h1V23.19h1l1.81,1.68H31.1L29,23.19h0.59a0.81,0.81,0,0,0,1-.86v-1a0.81,0.81,0,0,0-1-.86H25.78v4.44Zm3.37-3.67c0.32,0,.47.06,0.47,0.35v0.53c0,0.29-.15.35-0.47,0.35H26.81V21.19h2.35Zm5.51,3.67H39.3V24H35.71v-1.1h2.07V22.17H35.71v-1h3.55V20.43H34.67v4.44ZM47,21.2v0.51l0.92-.21V21.4c0-.77-0.31-1-1.11-1H44.28c-0.84,0-1.11.22-1.11,1V22c0,0.83.27,1,1.11,1h2.8v1H43.91V23.51L43,23.7v0.12c0,0.83.28,1,1.12,1h2.77c0.84,0,1.12-.21,1.12-1V23.21c0-.83-0.28-1-1.12-1h-2.8v-1H47Zm8.78,0v0.51l0.92-.21V21.4c0-.77-0.31-1-1.11-1H53.06c-0.84,0-1.11.22-1.11,1V22c0,0.83.27,1,1.11,1h2.8v1H52.69V23.51l-0.92.19v0.12c0,0.83.28,1,1.12,1h2.77c0.84,0,1.12-.21,1.12-1V23.21c0-.83-0.28-1-1.12-1h-2.8v-1H55.8Zm6,0h3.44V24H61.81V21.22Zm-1,.26v2.34c0,0.83.27,1,1.11,1h3.3c0.84,0,1.11-.21,1.11-1V21.48c0-.83-0.27-1-1.11-1h-3.3c-0.84,0-1.11.22-1.11,1m14.9,3.39h0.84V22.12a4.67,4.67,0,0,0,0-.47,1.91,1.91,0,0,0,.27.46l1.69,2.23h0.21l1.69-2.22a3,3,0,0,0,.26-0.47,4.71,4.71,0,0,0,0,.47v2.74h1V20.43H80.69l-2.07,2.68-2.11-2.68H75.67v4.44Zm10,0h1V20.43h-1v4.44Zm5.25,0h4.4V24H91.93v-3.6h-1v4.44Zm6.82,0h1l0.52-1h2.84l0.54,1h1.17l-2.57-4.44h-1Zm2-1.77,1-1.81,1,1.81h-2Zm7.46,1.77h0.94v-2.4c0-.13,0-0.36,0-0.71a3.62,3.62,0,0,0,.37.36l3.29,2.74h0.71V20.43h-0.94v2.33c0,0.14,0,.4,0,0.77A3.76,3.76,0,0,0,111,23l-3.15-2.61h-0.71v4.44Zm10.42-3.65H121V24h-3.44V21.22Zm-1,.26v2.34c0,0.83.27,1,1.11,1H121c0.84,0,1.11-.21,1.11-1V21.48c0-.83-0.27-1-1.11-1h-3.3c-0.84,0-1.11.22-1.11,1" transform="translate(0 0)"/><rect class="cls-1" y="15.58" width="122.06" height="1.26"/></svg>