<svg id="Layer_1" data-name="Layer 1" xmlns="http://www.w3.org/2000/svg" xmlns:xlink="http://www.w3.org/1999/xlink" viewBox="0 0 121.59 116.68"><defs><style>.cls-1{fill:none;}.cls-2{clip-path:url(#clip-path);}.cls-3{fill:#68696b;}.cls-4{fill:#fff;}</style><clipPath id="clip-path" transform="translate(0 0)"><rect class="cls-1" width="121.59" height="116.68"/></clipPath></defs><title>rocket certified</title><g class="cls-2"><path class="cls-3" d="M106.57,61.27c0,25.62-20.5,46.4-45.78,46.4S15,86.9,15,61.27,35.51,14.88,60.8,14.88s45.78,20.77,45.78,46.39m11.13-24.11C108,22.53,97.8,25.18,90,20.11,82.29,15.38,80.23.87,60.4,0c-18.79.79-20.81,14.46-27.08,18.68C27.09,23.34,11.58,22,2.26,38.92-5.06,58.71,7.54,62.81,10,72.18c2.18,9.8-3,22.15,10.27,35,3.42,3.62,8.76,7.63,15.43,8.84,10.79,1.77,14.92-3.54,24.82-3.54,4.89-.13,10.89,3.19,17.6,4s14.09-.68,21.42-8c13.51-13.4,9.68-24.25,11.39-34.94,1.76-9.27,17.94-13.84,6.8-36.36" transform="translate(0 0)"/><path class="cls-3" d="M104.91,61.15c0-24.69-19.75-44.71-44.11-44.71s-44.11,20-44.11,44.71,19.75,44.71,44.11,44.71,44.11-20,44.11-44.71" transform="translate(0 0)"/><path class="cls-4" d="M54.52,98.44c0.35-1.43-.36-2-1.71-2.3l-2.41-.6c-1.5-.37-2,0.2-2.16,1L48.12,97l1.5,0.37c0.15-.61.37-0.62,1-0.45l1.6,0.4c0.71,0.18.79,0.48,0.61,1.19l-0.13.53a0.83,0.83,0,0,1-1.18.74l-1.63-.41c-0.44-.11-0.68-0.27-0.59-0.63l0-.13-1.49-.37c-0.36,1.38-.19,1.91,1.93,2.43l1.76,0.44c1.35,0.33,2.23.2,2.59-1.23Z" transform="translate(0 0)"/></g><polygon class="cls-4" points="48.24 94.98 43.14 92.71 42.65 93.81 46.34 95.46 46.01 96.19 42.59 94.67 42.17 95.62 45.59 97.14 45.26 97.88 41.65 96.27 41.17 97.33 46.2 99.57 48.24 94.98"/><g class="cls-2"><path class="cls-4" d="M40.08,93.79l-0.68,1-2-1.34c-0.4-.27-0.54-0.46-0.29-0.83l0.09-.14A0.47,0.47,0,0,1,38,92.37Zm2.71-1.26-1.28-.86-0.73,1.08-2-1.35c-0.4-.27-0.43-0.5-0.13-0.94L39,90,37.7,89.1l-0.48.71a0.93,0.93,0,0,0,.08,1.39h0a1,1,0,0,0-1.4.55L35.7,92a1.29,1.29,0,0,0,.42,2.08L40,96.7Z" transform="translate(0 0)"/></g><polygon class="cls-4" points="34.97 91.73 33.41 90.23 36.02 87.5 34.9 86.44 32.29 89.17 30.73 87.67 29.87 88.58 34.11 92.63 34.97 91.73"/><rect class="cls-4" x="28.3" y="84.91" width="5.03" height="1.54" transform="translate(-47.78 39.7) rotate(-39.89)"/><polygon class="cls-4" points="31.78 83.02 30.93 81.74 29.5 82.68 27.55 79.73 26.58 80.38 28.53 83.32 27.75 83.84 25.7 80.75 24.69 81.42 27.59 85.79 31.78 83.02"/><rect class="cls-4" x="23.61" y="77.81" width="5.03" height="1.54" transform="translate(-32.84 20.44) rotate(-27.01)"/><polygon class="cls-4" points="27.65 76.21 25.71 70.97 24.58 71.39 25.98 75.19 25.22 75.46 23.93 71.95 22.95 72.31 24.25 75.83 23.49 76.11 22.12 72.39 21.03 72.8 22.93 77.95 27.65 76.21"/><g class="cls-2"><path class="cls-4" d="M24,69.26l-2.45.42L21.11,67a0.75,0.75,0,0,1,.73-1.06l0.67-.12a0.75,0.75,0,0,1,1,.75Zm1.53,1.3L24.77,66c-0.26-1.52-.85-2-2.08-1.76l-1.51.26c-1.22.21-1.63,0.83-1.37,2.35l0.79,4.58Z" transform="translate(0 0)"/></g><path class="cls-4" d="M22.87,56.15l-0.22,2-1.77-1.18Zm2.27-2.53-5.3,2.18-0.23,2,4.68,3.27,0.19-1.71-0.83-.55L24,55.7l0.94-.38Z" transform="translate(0 0)"/><g class="cls-2"><path class="cls-4" d="M23.49,53.1c1.19,0.38,2-.06,2.38-1.41l0.67-2.1c0.43-1.35.06-2.15-1.14-2.52l-3.08-1-0.47,1.47,2.77,0.88a0.74,0.74,0,0,1,.59,1.09L24.74,51a0.74,0.74,0,0,1-1.11.55l-2.77-.88L20.4,52.12Z" transform="translate(0 0)"/></g><polygon class="cls-4" points="23.83 45.75 24.83 43.83 28.18 45.58 28.89 44.21 25.54 42.47 26.54 40.54 25.43 39.97 22.72 45.17 23.83 45.75"/><polygon class="cls-4" points="29.95 42.16 30.88 40.94 29.37 39.78 31.34 37.2 32.86 38.36 33.79 37.13 29.8 34.08 28.86 35.31 30.29 36.39 28.31 38.98 26.89 37.89 25.95 39.11 29.95 42.16"/><polygon class="cls-4" points="34.16 36.79 38.27 33.01 37.45 32.12 34.47 34.86 33.93 34.26 36.69 31.73 35.98 30.96 33.22 33.5 32.68 32.91 35.59 30.23 34.8 29.37 30.75 33.09 34.16 36.79"/><polygon class="cls-4" points="38.53 32.74 39.84 31.92 37.9 28.83 37.91 28.82 42.3 30.37 44.32 29.1 41.65 24.84 40.34 25.66 42.29 28.76 42.28 28.76 37.88 27.21 35.86 28.48 38.53 32.74"/><polygon class="cls-4" points="43.04 25.58 45.05 24.77 46.46 28.27 47.89 27.69 46.48 24.19 48.49 23.38 48.02 22.22 42.57 24.42 43.04 25.58"/><rect class="cls-4" x="49.49" y="21.76" width="1.54" height="5.02" transform="translate(-4.71 14.58) rotate(-15.78)"/><g class="cls-2"><path class="cls-4" d="M51.9,24.48c0.22,1.45,1.09,1.67,2.46,1.46l2.46-.38c1.53-.24,1.73-0.94,1.6-1.78l-0.07-.47-1.52.24c0.1,0.62-.1.72-0.78,0.82l-1.63.25c-0.72.11-.91-0.14-1-0.86l-0.08-.54a0.83,0.83,0,0,1,.8-1.14l1.66-.26c0.45-.07.73,0,0.78,0.35l0,0.14,1.52-.24c-0.2-1.41-.56-1.83-2.73-1.5l-1.79.28c-1.37.21-2.14,0.68-1.91,2.14Z" transform="translate(0 0)"/><path class="cls-4" d="M67.09,22.29a0.37,0.37,0,0,1-.49.34l-2.71-.31L64,21.54l2.71,0.31a0.37,0.37,0,0,1,.4.44m-3.32,1.06,2.75,0.31c0.33,0,.54.14,0.5,0.48s-0.26.34-.59,0.3l-2.74-.31Zm4.88-1.17c0.11-1-.44-1.38-1.66-1.52l-4.41-.5-0.57,5,4.88,0.56c0.88,0.1,1.55-.05,1.68-1.15a1,1,0,0,0-.78-1.3v0a0.94,0.94,0,0,0,.87-1.06" transform="translate(0 0)"/></g><polygon class="cls-4" points="70.99 26.66 72.46 27.11 72.97 25.44 76.6 23.13 74.82 22.58 72.6 24.05 71.58 21.59 69.8 21.04 71.5 24.99 70.99 26.66"/><g class="cls-2"><path class="cls-4" d="M83.51,29l-0.09.14a0.47,0.47,0,0,1-.76.14L80.5,27.91l0.65-1,2,1.28c0.41,0.26.55,0.45,0.32,0.82m0.94-1.51L80.52,25l-2.68,4.25,1.3,0.82,0.7-1.1,2.05,1.29c0.4,0.25.44,0.48,0.16,0.93l-0.32.51L83,32.52l0.46-.72a0.93,0.93,0,0,0-.12-1.39h0a1,1,0,0,0,1.39-.59l0.17-.27a1.29,1.29,0,0,0-.48-2.07" transform="translate(0 0)"/><path class="cls-4" d="M89.14,34.33l-0.37.4c-0.5.53-.8,0.63-1.33,0.13L86,33.51c-0.53-.5-0.45-0.8,0-1.34l0.37-.4a0.83,0.83,0,0,1,1.39-.07l1.32,1.23a0.83,0.83,0,0,1,0,1.39m1.11-2.11-1.8-1.69c-1-.95-1.85-1.26-2.86-0.19l-1,1.09c-1,1.07-.64,1.89.37,2.84L86.74,36c1,0.95,1.85,1.26,2.86.19l1-1.09c1-1.07.64-1.89-.37-2.84" transform="translate(0 0)"/><path class="cls-4" d="M90,36.62c-1.2.86-1,1.73-.19,2.86l1.45,2c0.9,1.26,1.62,1.12,2.31.62l0.38-.27L93,40.6c-0.51.36-.69,0.24-1.09-0.33l-1-1.34c-0.43-.59-0.29-0.88.3-1.3l0.44-.32a0.82,0.82,0,0,1,1.38.2l1,1.37c0.27,0.37.34,0.65,0,.86L94,39.81l0.9,1.25c1.17-.82,1.38-1.33.1-3.11L94,36.49c-0.81-1.13-1.57-1.6-2.77-.74Z" transform="translate(0 0)"/></g><polygon class="cls-4" points="92.55 43.3 93.19 44.7 94.94 43.9 95.23 44.51 94.41 47.34 95.32 49.32 96.38 45.48 99.75 46.92 98.87 45.02 96.38 44.03 96.08 43.37 97.76 42.6 97.11 41.2 92.55 43.3"/><polygon class="cls-4" points="95.26 49.37 96.67 54.78 97.84 54.48 96.82 50.56 97.6 50.36 98.54 53.98 99.55 53.72 98.61 50.09 99.39 49.89 100.38 53.72 101.51 53.43 100.13 48.11 95.26 49.37"/><polygon class="cls-4" points="100.44 54.46 100.64 56.61 96.88 56.96 97.02 58.5 100.78 58.15 100.98 60.3 102.23 60.19 101.69 54.34 100.44 54.46"/><polygon class="cls-4" points="97.1 63.78 96.22 69.3 97.42 69.49 98.05 65.5 98.85 65.62 98.26 69.32 99.29 69.49 99.88 65.78 100.67 65.91 100.05 69.82 101.2 70 102.06 64.57 97.1 63.78"/><g class="cls-2"><path class="cls-4" d="M97.4,70c-1-.36-1.46.09-1.92,1.41L94.87,73.2c-0.67,1.93-.61,2.44.67,2.88s1.7,0,2.48-2.26c0.54-1.56.61-1.74,1-1.59,0.26,0.09.29,0.35,0.18,0.68l-0.56,1.61c-0.23.67-.39,0.66-0.74,0.54l-0.51,1.45,0.15,0.05c0.83,0.29,1.46.33,2-1.35l0.71-2c0.64-1.84,0-2.15-.86-2.44-1.17-.4-1.52-0.25-2.28,1.94-0.65,1.88-.74,2-1.15,1.89s-0.29-.45-0.18-0.76L96.46,72c0.14-.42.25-0.61,0.76-0.44l0.51-1.46Z" transform="translate(0 0)"/><path class="cls-4" d="M95.34,78.51l1.1,0.62-1.11,2a0.51,0.51,0,0,1-.78.29l-0.17-.1a0.47,0.47,0,0,1-.22-0.7Zm2.95-.11-4.38-2.47-0.76,1.34,1.1,0.62-1.5,2.67a1.41,1.41,0,0,0,.71,2l0.38,0.21a1.53,1.53,0,0,0,2.39-.74Z" transform="translate(0 0)"/><path class="cls-4" d="M91.77,84.23L92.71,85l-1.54,1.86c-0.31.37-.51,0.49-0.86,0.21L90.19,87a0.47,0.47,0,0,1,0-.77Zm2.89,0.39-3.87-3.2-1,1.19,1,0.83-1.55,1.86c-0.31.37-.54,0.38-0.94,0l-0.46-.39-1,1.19,0.66,0.54a0.93,0.93,0,0,0,1.39.06h0a1,1,0,0,0,.4,1.45l0.25,0.2a1.29,1.29,0,0,0,2.11-.21Z" transform="translate(0 0)"/></g><polygon class="cls-4" points="86.49 86.49 82.24 90.11 83.02 91.03 86.1 88.41 86.62 89.02 83.77 91.45 84.45 92.25 87.3 89.81 87.82 90.43 84.81 92.99 85.57 93.88 89.75 90.31 86.49 86.49"/><g class="cls-2"><path class="cls-4" d="M82.67,91.43c-0.55-.94-1.17-0.88-2.38-0.17l-1.61.95c-1.76,1-2,1.46-1.36,2.63s1.3,1.1,3.36-.12c1.42-.85,1.59-0.93,1.81-0.55s0,0.45-.31.63l-1.47.87C80.1,96,80,95.92,79.8,95.6l-1.33.78,0.08,0.14c0.45,0.76.9,1.19,2.43,0.29l1.85-1.09c1.68-1,1.39-1.63.93-2.42-0.63-1.06-1-1.17-3,0-1.71,1-1.88,1.07-2.1.7s0.07-.53.35-0.7l1.63-1c0.38-.23.59-0.3,0.87,0.16l1.33-.78Z" transform="translate(0 0)"/><path class="cls-4" d="M76.72,94.88c-0.37-1-1-1.08-2.31-.59l-1.75.64c-1.92.7-2.28,1.07-1.81,2.34s1.08,1.32,3.32.49c1.55-.57,1.73-0.63,1.88-0.22,0.09,0.25-.09.45-0.41,0.57L74,98.7c-0.67.24-.76,0.11-0.88-0.23L71.7,99l0.06,0.15c0.3,0.83.67,1.34,2.34,0.73l2-.74c1.82-.67,1.66-1.35,1.35-2.21-0.43-1.16-.77-1.33-2.95-0.53-1.86.68-2,.72-2.19,0.31s0.17-.51.47-0.62l1.77-.65c0.42-.15.63-0.19,0.82,0.31l1.45-.53Z" transform="translate(0 0)"/><path class="cls-4" d="M68.16,100.1l-1.78.3a0.83,0.83,0,0,1-1.12-.83L65.17,99c-0.12-.72,0-1,0.7-1.14l1.94-.33c0.72-.12.91,0.13,1,0.85l0.09,0.53a0.83,0.83,0,0,1-.78,1.15m2.42-.94-0.25-1.48c-0.24-1.45-1.12-1.66-2.48-1.43l-2.44.41c-1.37.23-2.13,0.71-1.88,2.16l0.25,1.48c0.24,1.45,1.11,1.66,2.48,1.43l2.44-.41c1.37-.23,2.13-0.71,1.88-2.16" transform="translate(0 0)"/></g><rect class="cls-4" x="60.9" y="97" width="1.46" height="1.42" transform="translate(-2.86 1.86) rotate(-1.69)"/><g class="cls-2"><path class="cls-4" d="M71.9,57.15c0,2.54-1.08,3.71-4,3.71H50V52.27H66.92c3.42,0,5,.59,5,3.71v1.17Zm10.54-.93V54c0-6.34-2.25-10.49-10.59-10.49H39.15V78.82H50V69.64H67c3.37,0,4.44,1.22,4.44,4.93v4.24H82.29v-6c0-5.81-2.68-7.22-5.9-7.81v-0.1c5-1.17,6.05-4,6.05-8.69" transform="translate(0 0)"/></g></svg>