<?xml version="1.0" encoding="utf-8"?>
<!-- Generator: Adobe Illustrator 19.2.0, SVG Export Plug-In . SVG Version: 6.00 Build 0)  -->
<svg version="1.1" id="Layer_1" xmlns="http://www.w3.org/2000/svg" xmlns:xlink="http://www.w3.org/1999/xlink" x="0px" y="0px"
	 viewBox="0 0 170.2 140" style="enable-background:new 0 0 170.2 140;" xml:space="preserve">
<style type="text/css">
	.st0{fill:#CCCCCC;}
</style>
<title>Rocketlogo_cropped_dark</title>
<path class="st0" d="M67,140v-22.7h46c9.1,0,12,3.2,12,13.1v9.5h29.3v-14.2c0-15.4-7.3-19.2-15.9-20.8v-0.3
	c13.4-3.1,16.4-10.5,16.4-23.1v-6c0-16.9-6.1-27.8-28.6-27.8H38V140H67z M67,71.1h45.7c9.3,0,13.4,1.6,13.4,9.9v3.1
	c0,6.8-2.9,9.9-10.8,9.9H67V71.2L67,71.1L67,71.1z"/>
<path class="st0" d="M170.2,37C138.1-4.6,78.5-12.3,37,19.8C0.1,48.2-10.7,99.1,11.3,140h10.8C14,126.5,9.7,110.9,9.8,95.1
	C9.1,48.6,46.4,10.4,92.9,9.8l0,0H95c31.3-0.3,60.3,16.7,75.1,44.3V37z"/>
</svg>
